<svg xmlns="http://www.w3.org/2000/svg" version="1.1" xmlns:xlink="http://www.w3.org/1999/xlink" xmlns:svgjs="http://svgjs.dev/svgjs" width="1000" height="484" viewBox="0 0 1000 484"><g transform="matrix(1,0,0,1,-0.6060606060606233,-0.31999397869836343)"><svg viewBox="0 0 396 192" data-background-color="#fff275" preserveAspectRatio="xMidYMid meet" height="484" width="1000" xmlns="http://www.w3.org/2000/svg" xmlns:xlink="http://www.w3.org/1999/xlink"><g id="tight-bounds" transform="matrix(1,0,0,1,0.2400000000000091,0.12693976014480768)"><svg viewBox="0 0 395.52 191.74612047971038" height="191.74612047971038" width="395.52"><g><svg viewBox="0 0 395.52 191.74612047971038" height="191.74612047971038" width="395.52"><g transform="matrix(1,0,0,1,0,143.8105011365503)"><svg viewBox="0 0 395.52 47.93561934316007" height="47.93561934316007" width="395.52"><g id="textblocktransform"><svg viewBox="0 0 395.52 47.93561934316007" height="47.93561934316007" width="395.52" id="textblock"><g><svg viewBox="0 0 395.52 47.93561934316007" height="47.93561934316007" width="395.52"><g transform="matrix(1,0,0,1,0,0)"><svg width="395.52" viewBox="2.03 -34.67 283.21000000000004 34.33" height="47.93561934316007" data-palette-color="#6699cc"><path d="M14.26-0.98L2.54-0.98 2.03-17.24Q2.03-18.92 2.08-21.04 2.12-23.17 2.2-24.88 2.27-26.59 2.33-28.76 2.39-30.93 2.39-32.71L2.39-32.71Q2.39-33.2 2.72-33.34 3.05-33.47 3.55-33.42 4.05-33.37 4.69-33.5L4.69-33.5 22.17-33.5Q23.66-33.5 25.15-33.12 26.64-32.74 28.06-31.9 29.49-31.05 30.58-29.85 31.67-28.64 32.34-26.83 33.01-25.02 33.01-22.85L33.01-22.85Q33.01-19.97 31.79-17.74 30.57-15.5 28.13-13.53L28.13-13.53Q25.12-11.96 20.9-11.72L20.9-11.72 20.12-11.72Q19.14-11.52 18.16-11.52L18.16-11.52 16.21-11.52Q16.06-11.52 15.97-11.47L15.97-11.47Q15.97-5.08 16.16-1.81L16.16-1.81Q16.04-1.32 15.64-1.15 15.23-0.98 14.26-0.98L14.26-0.98ZM14.75-19.63L14.75-19.63 14.75-19.19Q14.77-19.17 15.08-19.03 15.38-18.9 15.38-18.85L15.38-18.85 15.38-18.8Q15.33-18.8 15.33-18.9L15.33-18.9Q15.38-18.85 15.63-18.85L15.63-18.85Q17.8-18.85 19.3-19.82 20.8-20.8 20.8-22.85L20.8-22.85Q20.8-23.78 20.48-24.44 20.17-25.1 19.71-25.45 19.26-25.81 18.49-25.99 17.72-26.17 17.09-26.22 16.46-26.27 15.48-26.27L15.48-26.27Q15.45-26.25 15.28-26.1 15.11-25.95 15.04-25.88L15.04-25.88 15.04-23.34Q14.75-21 14.75-19.63ZM33.84-16.21L33.84-17.68 33.79-18.21Q34.25-22.19 34.67-23.75L34.67-23.75Q35.62-27.42 38.08-29.88L38.08-29.88 38.67-30.47Q39.84-31.84 42.23-32.81L42.23-32.81 43.16-32.81Q45.55-33.81 51.02-34.67L51.02-34.67Q52.39-34.67 53.89-34.46 55.39-34.25 57.22-33.78 59.06-33.3 60.75-32.26 62.45-31.23 63.57-29.79L63.57-29.79 63.57-29.1Q67.58-24.1 67.58-17.87L67.58-17.87Q67.58-10.86 64.35-6.45L64.35-6.45 63.38-5.22Q62.25-3.83 60.58-2.83 58.91-1.83 57.03-1.31 55.15-0.78 53.43-0.56 51.71-0.34 50-0.34L50-0.34Q47.48-0.34 45.2-0.94 42.92-1.54 40.93-2.81 38.94-4.08 37.42-5.93 35.91-7.79 34.97-10.41 34.03-13.04 33.84-16.21L33.84-16.21ZM47.26-18.55L47.26-17.48Q47.26-8.89 50.53-8.89L50.53-8.89Q51.44-8.89 52.11-9.23 52.78-9.57 53.2-10.28 53.61-10.99 53.88-11.72 54.15-12.45 54.26-13.55 54.37-14.65 54.4-15.48 54.44-16.31 54.44-17.48L54.44-17.48 54.44-18.36Q54.44-19.63 54.29-20.8 54.15-21.97 53.79-23.16 53.44-24.34 52.71-25.06 51.98-25.78 50.93-25.78L50.93-25.78Q47.26-25.78 47.26-18.55L47.26-18.55ZM86.37-33.5L88.86-33.5Q89.03-33.54 89.41-33.58 89.79-33.62 89.89-33.64L89.89-33.64 92.79-18.77 96.6-33.69 113.76-33.69Q114.45-33.69 114.45-30.81L114.45-30.81 114.45-2.05Q114.4-1.66 114.23-1.42 114.06-1.17 113.73-1.09 113.4-1 113.22-0.99 113.03-0.98 112.59-0.98L112.59-0.98Q111.05-0.98 107.92-0.93 104.78-0.88 103.22-0.88L103.22-0.88Q102-1.64 102-6.49L102-6.49Q102-7.71 102.05-9.68 102.09-11.65 102.09-12.6L102.09-12.6 102.09-14.75Q102.09-14.92 102.07-15.3 102.05-15.67 102.05-15.87L102.05-15.87Q102.05-16.7 102.14-18.55L102.14-18.55 102.14-16.7Q101.8-15.26 100.83-12.3 99.85-9.35 99.51-7.91L99.51-7.91 98.04-1.66Q97.65-0.98 95.6-0.98L95.6-0.98Q94.6-0.98 93-1.03 91.4-1.07 90.57-1.07L90.57-1.07Q90.33-1.07 89.74-1.05 89.16-1.03 89.01-1.03L89.01-1.03Q88.23-1.03 87.89-1.22 87.54-1.42 87.4-2L87.4-2Q85.1-12.18 84.22-16.41L84.22-16.41 83.34-20.61Q83-13.5 83-5.57L83-5.57 83-1.27 71.48-1.27Q71.48-1.42 71.55-1.9 71.63-2.39 71.63-2.44L71.63-2.44Q71.43-7.13 71.43-14.01L71.43-14.01Q71.43-16.09 71.41-19.54 71.38-23 71.38-24.32L71.38-24.32 71.38-32.96Q71.38-33.28 71.48-33.44 71.58-33.59 71.97-33.89L71.97-33.89 74.21-33.89Q75.43-33.89 75.97-33.94L75.97-33.94Q78.44-33.94 81.97-33.72 85.49-33.5 86.37-33.5L86.37-33.5ZM102.14-18.75L102.14-18.7 102.14-18.75ZM117.47-16.21L117.47-17.68 117.42-18.21Q117.89-22.19 118.3-23.75L118.3-23.75Q119.26-27.42 121.72-29.88L121.72-29.88 122.31-30.47Q123.48-31.84 125.87-32.81L125.87-32.81 126.8-32.81Q129.19-33.81 134.66-34.67L134.66-34.67Q136.03-34.67 137.53-34.46 139.03-34.25 140.86-33.78 142.69-33.3 144.39-32.26 146.09-31.23 147.21-29.79L147.21-29.79 147.21-29.1Q151.21-24.1 151.21-17.87L151.21-17.87Q151.21-10.86 147.99-6.45L147.99-6.45 147.01-5.22Q145.89-3.83 144.22-2.83 142.55-1.83 140.67-1.31 138.79-0.78 137.07-0.56 135.34-0.34 133.64-0.34L133.64-0.34Q131.12-0.34 128.84-0.94 126.56-1.54 124.57-2.81 122.58-4.08 121.06-5.93 119.55-7.79 118.61-10.41 117.67-13.04 117.47-16.21L117.47-16.21ZM130.9-18.55L130.9-17.48Q130.9-8.89 134.17-8.89L134.17-8.89Q135.08-8.89 135.75-9.23 136.42-9.57 136.83-10.28 137.25-10.99 137.52-11.72 137.79-12.45 137.9-13.55 138.01-14.65 138.04-15.48 138.08-16.31 138.08-17.48L138.08-17.48 138.08-18.36Q138.08-19.63 137.93-20.8 137.79-21.97 137.43-23.16 137.08-24.34 136.35-25.06 135.61-25.78 134.56-25.78L134.56-25.78Q130.9-25.78 130.9-18.55L130.9-18.55ZM161.9-33.89L168.15-33.89Q171.5-33.89 174.17-33.45 176.85-33.01 179.3-31.88 181.75-30.76 183.39-28.96 185.02-27.15 185.99-24.27 186.95-21.39 186.95-17.58L186.95-17.58Q186.95-14.79 186.29-12.39 185.63-9.99 184.49-8.25 183.34-6.52 181.86-5.16 180.39-3.81 178.65-2.95 176.92-2.1 175.19-1.64 173.45-1.17 171.72-1.07L171.72-1.07 154.97-1.07 154.97-33.5Q155.04-33.5 155.24-33.47 155.43-33.45 155.51-33.45L155.51-33.45Q156.56-33.45 158.69-33.67 160.83-33.89 161.9-33.89L161.9-33.89ZM167.28-8.69L168.45-8.69Q169.69-8.69 170.64-9.09 171.6-9.5 172.17-10.25 172.74-11.01 173.12-11.84 173.5-12.67 173.67-13.79 173.84-14.92 173.9-15.76 173.96-16.6 173.96-17.68L173.96-17.68 173.96-19.43Q173.94-19.6 173.82-21.09 173.7-22.58 173.28-23.63L173.28-23.63Q172.89-24.39 172.41-24.94 171.94-25.49 171.47-25.79 171.01-26.1 170.39-26.26 169.77-26.42 169.25-26.46 168.74-26.51 168.01-26.51L168.01-26.51 168.01-25.98 167.28-25.98 167.28-8.69ZM188.51-16.21L188.51-17.68 188.46-18.21Q188.93-22.19 189.34-23.75L189.34-23.75Q190.3-27.42 192.76-29.88L192.76-29.88 193.35-30.47Q194.52-31.84 196.91-32.81L196.91-32.81 197.84-32.81Q200.23-33.81 205.7-34.67L205.7-34.67Q207.07-34.67 208.57-34.46 210.07-34.25 211.9-33.78 213.73-33.3 215.43-32.26 217.13-31.23 218.25-29.79L218.25-29.79 218.25-29.1Q222.25-24.1 222.25-17.87L222.25-17.87Q222.25-10.86 219.03-6.45L219.03-6.45 218.05-5.22Q216.93-3.83 215.26-2.83 213.59-1.83 211.71-1.31 209.83-0.78 208.11-0.56 206.38-0.34 204.68-0.34L204.68-0.34Q202.16-0.34 199.88-0.94 197.59-1.54 195.61-2.81 193.62-4.08 192.1-5.93 190.59-7.79 189.65-10.41 188.71-13.04 188.51-16.21L188.51-16.21ZM201.94-18.55L201.94-17.48Q201.94-8.89 205.21-8.89L205.21-8.89Q206.12-8.89 206.79-9.23 207.46-9.57 207.87-10.28 208.29-10.99 208.56-11.72 208.83-12.45 208.94-13.55 209.05-14.65 209.08-15.48 209.12-16.31 209.12-17.48L209.12-17.48 209.12-18.36Q209.12-19.63 208.97-20.8 208.83-21.97 208.47-23.16 208.12-24.34 207.38-25.06 206.65-25.78 205.6-25.78L205.6-25.78Q201.94-25.78 201.94-18.55L201.94-18.55ZM226.3-0.98L225.67-2.05 225.67-33.01Q225.67-33.4 225.91-33.58 226.16-33.76 226.36-33.78 226.57-33.79 227.13-33.79L227.13-33.79 250.18-33.79Q250.38-33.79 250.5-33.73 250.62-33.67 250.69-33.61 250.77-33.54 250.79-33.41 250.82-33.28 250.83-33.2 250.84-33.13 250.83-32.98 250.82-32.84 250.82-32.81L250.82-32.81 250.82-24.51 239.39-24.51 239.39-23.63Q239.39-23.34 239.49-22.07L239.49-22.07 241.78-22.07Q242.12-22.09 243.01-22.23 243.91-22.36 244.42-22.36L244.42-22.36 246.42-22.36Q247.1-22.36 247.45-22.41L247.45-22.41Q248.45-22.41 249.28-22.17 250.11-21.92 250.18-21.63L250.18-21.63 250.18-20.21Q250.18-19.75 250.13-18.79 250.08-17.82 250.08-17.33L250.08-17.33 250.08-15.14Q250.13-14.94 250.13-14.45L250.13-14.45 250.13-13.48Q250.03-12.7 248.62-12.7L248.62-12.7 247.06-12.7Q246.23-12.7 244.67-12.65 243.12-12.6 242.27-12.6L242.27-12.6 239.54-12.6 239.54-0.98 226.3-0.98ZM251.4-33.69L264.31-33.69 268.15-21.63Q270-26.59 271.61-31.54L271.61-31.54Q271.66-31.74 271.91-32.28 272.15-32.81 272.2-33.15L272.2-33.15Q272.39-33.74 274.84-33.74L274.84-33.74Q275.01-33.74 275.31-33.72 275.62-33.69 275.81-33.69L275.81-33.69Q279.79-33.74 284.41-33.79L284.41-33.79Q284.99-33.72 285.24-32.59L285.24-32.59 274.15-12.52 274.54-10.89Q274.54-9.47 274.59-6.57 274.64-3.66 274.64-2.54L274.64-2.54 274.64-1.81Q274.54-1.46 274.26-1.25 273.98-1.03 273.48-0.96 272.98-0.9 272.6-0.89 272.22-0.88 271.53-0.9 270.83-0.93 270.59-0.93L270.59-0.93 261.26-0.93 260.48-1.95 260.48-12.16 254.84-24.19 252.23-27.86Q250.23-31.86 250.23-33.01L250.23-33.01Q250.23-33.69 251.4-33.69L251.4-33.69Z" opacity="1" transform="matrix(1,0,0,1,0,0)" fill="#6699cc" class="wordmark-text-0" data-fill-palette-color="primary" id="text-0"></path></svg></g></svg></g></svg></g></svg></g><g transform="matrix(1,0,0,1,123.09034266905446,0)"><svg viewBox="0 0 149.33931466189105 132.49405186449445" height="132.49405186449445" width="149.33931466189105"><g><svg xmlns="http://www.w3.org/2000/svg" xmlns:xlink="http://www.w3.org/1999/xlink" version="1.1" x="8" y="0" viewBox="13.613999999999997 14.996 74.773 74.299" enable-background="new 0 0 100 100" xml:space="preserve" height="132.49405186449445" width="133.33931466189105" class="icon-icon-0" data-fill-palette-color="accent" id="icon-0"><path fill="#6699cc" d="M51 14.996c-20.648 0-37.386 16.632-37.386 37.149 0 20.519 16.738 37.15 37.386 37.15 20.647 0 37.387-16.632 37.387-37.15C88.387 31.628 71.647 14.996 51 14.996zM51.151 86.609c-19.035 0-34.465-15.333-34.465-34.246 0-18.914 15.43-34.246 34.465-34.246 19.033 0 34.463 15.332 34.463 34.246C85.614 71.276 70.185 86.609 51.151 86.609z" data-fill-palette-color="accent"></path><path fill="#6699cc" d="M27.429 36.256c0 0 15.666-17.457 38.491-6.267L53.837 40.284l3.579-7.019c0 0-13.874-4.171-24.168 3.886 0 0 11.637 3.58 10.742 7.608C43.989 44.76 28.771 40.284 27.429 36.256z" data-fill-palette-color="accent"></path><path fill="#6699cc" d="M56.97 47.893l14.769-12.39c0 0 6.268 13.733 4.478 24.922l-15.219-4.924h8.504c0 0-0.906-10.793-2.747-12.531C64.911 41.232 62.788 49.236 56.97 47.893z" data-fill-palette-color="accent"></path><path fill="#6699cc" d="M43.095 52.369c0 0-17.456-5.678-17.456-4.405s-4.028 7.537 0 17.832l14.323-5.371c0 0 3.396-4.748-9.4 0l-3.132-8.28C27.429 52.145 43.095 55.95 43.095 52.369z" data-fill-palette-color="accent"></path><path fill="#6699cc" d="M43.095 60.425c0 0-7.609 9.847-7.609 11.638s14.769 9.399 15.218 6.714c0.447-2.685 0.895-15.218 0-18.352-0.896-3.133-0.896-3.133-0.896-3.133s-3.133 1.79-3.133 13.875l-5.37-2.849C41.305 68.318 43.542 64.454 43.095 60.425z" data-fill-palette-color="accent"></path><path fill="#6699cc" d="M59.207 76.985c0 0 13.876-7.041 13.876-8.667s-9.634-10.608-13.215-8.819c-3.581 1.791 6.052 6.297 6.052 6.297s-5.987 4.217-7.469 2.782c-1.481-1.439 1.481 1.435 1.481 1.435s-1.172-3.769-2.963-9.588C55.18 54.605 56.915 78.178 59.207 76.985z" data-fill-palette-color="accent"></path></svg></g></svg></g><g><rect width="123.09034266905446" height="4.322883621925338" y="127.17116824256911" x="272.42965733094553" fill="#6699cc" data-fill-palette-color="accent"></rect><rect width="123.09034266905446" height="4.322883621925338" y="127.17116824256911" x="0" fill="#6699cc" data-fill-palette-color="accent"></rect><rect width="123.09034266905446" height="4.322883621925338" y="118.52540099871844" x="272.42965733094553" fill="#6699cc" data-fill-palette-color="accent"></rect><rect width="123.09034266905446" height="4.322883621925338" y="118.52540099871844" x="0" fill="#6699cc" data-fill-palette-color="accent"></rect></g></svg></g><defs></defs></svg><rect width="395.52" height="191.74612047971038" fill="none" stroke="none" visibility="hidden"></rect></g></svg></g></svg>